<mxfile host="app.diagrams.net" modified="2024-02-18T12:09:57.046Z" agent="Mozilla/5.0 (X11; Linux x86_64; rv:122.0) Gecko/20100101 Firefox/122.0" etag="KtMmJ02OTKaM_TOoqG6m" version="23.1.5" type="github">
  <diagram name="Page-1" id="2rEhglIZM8FDpv7ZXj03">
    <mxGraphModel dx="2284" dy="759" grid="1" gridSize="10" guides="1" tooltips="1" connect="1" arrows="1" fold="1" page="1" pageScale="1" pageWidth="850" pageHeight="1100" math="0" shadow="0">
      <root>
        <mxCell id="0" />
        <mxCell id="1" parent="0" />
        <object label="Vue FE" id="o2sftL_neSXx_I-yRiTo-1">
          <mxCell style="shape=process;whiteSpace=wrap;html=1;backgroundOutline=1;" vertex="1" parent="1">
            <mxGeometry x="810" y="218" width="120" height="60" as="geometry" />
          </mxCell>
        </object>
        <mxCell id="o2sftL_neSXx_I-yRiTo-2" value="api-gateway" style="shape=hexagon;perimeter=hexagonPerimeter2;whiteSpace=wrap;html=1;fixedSize=1;" vertex="1" parent="1">
          <mxGeometry x="490" y="208" width="120" height="80" as="geometry" />
        </mxCell>
        <mxCell id="o2sftL_neSXx_I-yRiTo-4" value="&lt;div&gt;user-service&lt;/div&gt;" style="ellipse;whiteSpace=wrap;html=1;aspect=fixed;" vertex="1" parent="1">
          <mxGeometry x="160" y="100" width="80" height="80" as="geometry" />
        </mxCell>
        <mxCell id="o2sftL_neSXx_I-yRiTo-6" value="expense-service" style="ellipse;whiteSpace=wrap;html=1;aspect=fixed;" vertex="1" parent="1">
          <mxGeometry x="160" y="288" width="80" height="80" as="geometry" />
        </mxCell>
        <mxCell id="o2sftL_neSXx_I-yRiTo-7" value="" style="image;aspect=fixed;html=1;points=[];align=center;fontSize=12;image=img/lib/azure2/databases/Azure_Database_MySQL_Server.svg;" vertex="1" parent="1">
          <mxGeometry x="-240" y="214" width="48" height="64" as="geometry" />
        </mxCell>
        <mxCell id="o2sftL_neSXx_I-yRiTo-8" value="db-service" style="ellipse;whiteSpace=wrap;html=1;aspect=fixed;" vertex="1" parent="1">
          <mxGeometry x="-20" y="208" width="80" height="80" as="geometry" />
        </mxCell>
        <mxCell id="o2sftL_neSXx_I-yRiTo-9" value="" style="endArrow=classic;startArrow=classic;html=1;rounded=0;" edge="1" parent="1" source="o2sftL_neSXx_I-yRiTo-8">
          <mxGeometry width="50" height="50" relative="1" as="geometry">
            <mxPoint x="70" y="240" as="sourcePoint" />
            <mxPoint x="160" y="150" as="targetPoint" />
            <Array as="points" />
          </mxGeometry>
        </mxCell>
        <mxCell id="o2sftL_neSXx_I-yRiTo-10" value="" style="endArrow=classic;startArrow=classic;html=1;rounded=0;exitX=0.838;exitY=0.95;exitDx=0;exitDy=0;exitPerimeter=0;" edge="1" parent="1" source="o2sftL_neSXx_I-yRiTo-8" target="o2sftL_neSXx_I-yRiTo-6">
          <mxGeometry width="50" height="50" relative="1" as="geometry">
            <mxPoint x="70" y="330" as="sourcePoint" />
            <mxPoint x="160" y="240" as="targetPoint" />
            <Array as="points">
              <mxPoint x="100" y="300" />
            </Array>
          </mxGeometry>
        </mxCell>
        <mxCell id="o2sftL_neSXx_I-yRiTo-14" value="" style="html=1;shadow=0;dashed=0;align=center;verticalAlign=middle;shape=mxgraph.arrows2.twoWayArrow;dy=0.65;dx=22;" vertex="1" parent="1">
          <mxGeometry x="630" y="218" width="160" height="60" as="geometry" />
        </mxCell>
        <mxCell id="o2sftL_neSXx_I-yRiTo-15" value="" style="shape=flexArrow;endArrow=classic;startArrow=classic;html=1;rounded=0;" edge="1" parent="1">
          <mxGeometry width="100" height="100" relative="1" as="geometry">
            <mxPoint x="-190" y="247.5" as="sourcePoint" />
            <mxPoint x="-30" y="247.5" as="targetPoint" />
          </mxGeometry>
        </mxCell>
        <mxCell id="o2sftL_neSXx_I-yRiTo-16" value="" style="endArrow=classic;startArrow=classic;html=1;rounded=0;" edge="1" parent="1">
          <mxGeometry width="50" height="50" relative="1" as="geometry">
            <mxPoint x="240" y="138" as="sourcePoint" />
            <mxPoint x="480" y="218" as="targetPoint" />
          </mxGeometry>
        </mxCell>
        <mxCell id="o2sftL_neSXx_I-yRiTo-17" value="" style="endArrow=classic;startArrow=classic;html=1;rounded=0;" edge="1" parent="1">
          <mxGeometry width="50" height="50" relative="1" as="geometry">
            <mxPoint x="240" y="330" as="sourcePoint" />
            <mxPoint x="480" y="270" as="targetPoint" />
          </mxGeometry>
        </mxCell>
      </root>
    </mxGraphModel>
  </diagram>
</mxfile>
